<svg aria-hidden="true" style="position: absolute; width: 0; height: 0; overflow: hidden;" version="1.1" xmlns="http://www.w3.org/2000/svg" xmlns:xlink="http://www.w3.org/1999/xlink">
<defs>
<symbol id="icon-arrow" viewBox="0 0 32 32">
<path d="M22.618 15.127l-10.909-14.545c-0.482-0.643-1.394-0.773-2.036-0.291s-0.773 1.394-0.291 2.036l10.254 13.672-10.254 13.673c-0.482 0.643-0.352 1.554 0.291 2.036 0.239 0.182 0.542 0.291 0.871 0.291 0 0 0.001 0 0.001 0h-0c0.442 0 0.879-0.201 1.165-0.582l10.909-14.546c0.182-0.24 0.291-0.544 0.291-0.873s-0.109-0.633-0.294-0.876l0.003 0.004z"></path>
</symbol>
<symbol id="icon-arrow-1" viewBox="0 0 32 32">
<path stroke-linejoin="round" stroke-linecap="round" stroke-miterlimit="4" stroke-width="2.666" d="M6.666 16h18.668M16 25.334l9.334-9.334-9.334-9.334"></path>
</symbol>
  <symbol id="icon-left" viewBox="0 0 32 32">
<path stroke-linejoin="round" stroke-linecap="round" stroke-miterlimit="4" stroke-width="2.6667" d="M6.667 16h18.667"></path>
<path stroke-linejoin="round" stroke-linecap="round" stroke-miterlimit="4" stroke-width="2.6667" d="M16 25.334l9.333-9.333-9.333-9.333"></path>
</symbol>
</defs>
</svg>
